<svg width="24" height="24" viewBox="0 0 24 24" fill="none" xmlns="http://www.w3.org/2000/svg">
<rect width="24" height="24" rx="6" fill="#5030E5" fill-opacity="0.2"/>
<path d="M18.75 7.485C16.2525 7.2375 13.74 7.11 11.235 7.11C9.75 7.11 8.265 7.185 6.78 7.335L5.25 7.485" stroke="#5030E5" stroke-width="1.5" stroke-linecap="round" stroke-linejoin="round"/>
<path d="M9.375 6.7275L9.54 5.745C9.66 5.0325 9.75 4.5 11.0175 4.5H12.9825C14.25 4.5 14.3475 5.0625 14.46 5.7525L14.625 6.7275" stroke="#5030E5" stroke-width="1.5" stroke-linecap="round" stroke-linejoin="round"/>
<path d="M17.1375 9.855L16.65 17.4075C16.5675 18.585 16.5 19.5 14.4075 19.5H9.59255C7.50005 19.5 7.43255 18.585 7.35005 17.4075L6.86255 9.855" stroke="#5030E5" stroke-width="1.5" stroke-linecap="round" stroke-linejoin="round"/>
<path d="M10.7476 15.375H13.2451" stroke="#5030E5" stroke-width="1.5" stroke-linecap="round" stroke-linejoin="round"/>
<path d="M10.125 12.375H13.875" stroke="#5030E5" stroke-width="1.5" stroke-linecap="round" stroke-linejoin="round"/>
</svg>
