<svg width="30" height="30" viewBox="0 0 30 30" fill="none" xmlns="http://www.w3.org/2000/svg">
<path d="M3 9C3 5.68629 5.68629 3 9 3H21C24.3137 3 27 5.68629 27 9V21C27 24.3137 24.3137 27 21 27H9C5.68629 27 3 24.3137 3 21V9Z" fill="#5030E5" fill-opacity="0.2"/>
<path d="M21.75 10.485C19.2525 10.2375 16.74 10.11 14.235 10.11C12.75 10.11 11.265 10.185 9.78 10.335L8.25 10.485" stroke="#5030E5" stroke-width="1.5" stroke-linecap="round" stroke-linejoin="round"/>
<path d="M12.375 9.7275L12.54 8.745C12.66 8.0325 12.75 7.5 14.0175 7.5H15.9825C17.25 7.5 17.3475 8.0625 17.46 8.7525L17.625 9.7275" stroke="#5030E5" stroke-width="1.5" stroke-linecap="round" stroke-linejoin="round"/>
<path d="M20.1375 12.855L19.65 20.4075C19.5675 21.585 19.5 22.5 17.4075 22.5H12.5925C10.5 22.5 10.4325 21.585 10.35 20.4075L9.86255 12.855" stroke="#5030E5" stroke-width="1.5" stroke-linecap="round" stroke-linejoin="round"/>
<path d="M13.7476 18.375H16.2451" stroke="#5030E5" stroke-width="1.5" stroke-linecap="round" stroke-linejoin="round"/>
<path d="M13.125 15.375H16.875" stroke="#5030E5" stroke-width="1.5" stroke-linecap="round" stroke-linejoin="round"/>
</svg>
