<svg width="25" height="25" viewBox="0 0 25 25" fill="none" xmlns="http://www.w3.org/2000/svg">
<path d="M8.75 25H16.25C22.5 25 25 22.5 25 16.25V8.75C25 2.5 22.5 0 16.25 0H8.75C2.5 0 0 2.5 0 8.75V16.25C0 22.5 2.5 25 8.75 25Z" fill="#5030E5" fill-opacity="0.2"/>
<path d="M13.6375 7.30001L7.14998 13.7875C6.89998 14.0375 6.66249 14.525 6.61249 14.875L6.26249 17.35C6.13749 18.25 6.76249 18.875 7.66249 18.75L10.1375 18.4C10.4875 18.35 10.975 18.1125 11.225 17.8625L17.7125 11.375C18.825 10.2625 19.3625 8.96251 17.7125 7.31251C16.0625 5.65001 14.7625 6.17501 13.6375 7.30001Z" stroke="#5030E5" stroke-width="1.5" stroke-miterlimit="10" stroke-linecap="round" stroke-linejoin="round"/>
<path d="M12.7124 8.22504C13.2624 10.1875 14.7999 11.7375 16.7749 12.2875" stroke="#5030E5" stroke-width="1.5" stroke-miterlimit="10" stroke-linecap="round" stroke-linejoin="round"/>
</svg>
