<svg width="40" height="40" viewBox="0 0 40 40" fill="none" xmlns="http://www.w3.org/2000/svg">
<path d="M36.8421 16.8421H23.1579V3.1579C23.1579 1.43158 21.7263 0 20 0C18.2737 0 16.8421 1.43158 16.8421 3.1579V16.8421H3.1579C1.43158 16.8421 0 18.2737 0 20C0 21.7263 1.43158 23.1579 3.1579 23.1579H16.8421V36.8421C16.8421 38.5684 18.2737 40 20 40C21.7263 40 23.1579 38.5684 23.1579 36.8421V23.1579H36.8421C38.5684 23.1579 40 21.7263 40 20C40 18.2737 38.5684 16.8421 36.8421 16.8421Z" fill="#0D062D"/>
</svg>
