<svg width="16" height="16" viewBox="0 0 16 16" fill="none" xmlns="http://www.w3.org/2000/svg">
<path d="M14.7368 6.73684H9.26316V1.26316C9.26316 0.572632 8.69053 0 8 0C7.30948 0 6.73684 0.572632 6.73684 1.26316V6.73684H1.26316C0.572632 6.73684 0 7.30948 0 8C0 8.69053 0.572632 9.26316 1.26316 9.26316H6.73684V14.7368C6.73684 15.4274 7.30948 16 8 16C8.69053 16 9.26316 15.4274 9.26316 14.7368V9.26316H14.7368C15.4274 9.26316 16 8.69053 16 8C16 7.30948 15.4274 6.73684 14.7368 6.73684Z" fill="#5030E5"/>
</svg>
